{
  "source": "C:\\Users\\Peter\\Desktop\\stuff\\MIUN\\quantitative_research\\video_compression\\videos\\BVI-HD\\BVI-HD_CDVL_videos\\ORIG\\BridgeRiver_1920x1080_30fps.mp4",
  "output": "C:\\Users\\Peter\\Desktop\\stuff\\MIUN\\quantitative_research\\video_compression\\compressed_videos\\BVI-HD\\vp9\\1\\BridgeRiver_1920x1080_30fps_vp9.webm",
  "codec": "vp9",
  "ok": "Input #0, mov,mp4,m4a,3gp,3g2,mj2, from 'C:\\Users\\Peter\\Desktop\\stuff\\MIUN\\quantitative_research\\video_compression\\videos\\BVI-HD\\BVI-HD_CDVL_videos\\ORIG\\BridgeRiver_1920x1080_30fps.mp4':\n  Metadata:\n    major_brand     : isom\n    minor_version   : 512\n    compatible_brands: isomiso2avc1mp41\n    encoder         : Lavf54.28.101\n  Duration: 00:00:05.00, start: 0.000000, bitrate: 274913 kb/s\n  Stream #0:0[0x1](und): Video: h264 (High 4:4:4 Predictive) (avc1 / 0x31637661), yuv420p(progressive), 1920x1080, 274910 kb/s, 30 fps, 30 tbr, 30 tbn (default)\n    Metadata:\n      handler_name    : VideoHandler\n      vendor_id       : [0][0][0][0]\n[out#0/webm @ 000001cb0d7d9240] Codec AVOption b:a (set bitrate (in bits/s)) has not been used for any stream. The most likely reason is either wrong type (e.g. a video option with no video streams) or that it is a private option of some decoder which was not actually used for any stream.\nStream mapping:\n  Stream #0:0 -> #0:0 (h264 (native) -> vp9 (libvpx-vp9))\nPress [q] to stop, [?] for help\n[libvpx-vp9 @ 000001cb0e2904c0] v1.15.2-100-g40561f514\nOutput #0, webm, to 'C:\\Users\\Peter\\Desktop\\stuff\\MIUN\\quantitative_research\\video_compression\\compressed_videos\\BVI-HD\\vp9\\1\\BridgeRiver_1920x1080_30fps_vp9.webm':\n  Metadata:\n    major_brand     : isom\n    minor_version   : 512\n    compatible_brands: isomiso2avc1mp41\n    encoder         : Lavf62.3.100\n  Stream #0:0(und): Video: vp9, yuv420p(tv, progressive), 1920x1080, q=2-31, 1000 kb/s, 30 fps, 1k tbn (default)\n    Metadata:\n      encoder         : Lavc62.11.100 libvpx-vp9\n      handler_name    : VideoHandler\n      vendor_id       : [0][0][0][0]\n    Side data:\n      cpb: bitrate max/min/avg: 0/0/0 buffer size: 1000000 vbv_delay: N/A\nframe=    0 fps=0.0 q=0.0 size=       0KiB time=N/A bitrate=N/A speed=N/A elapsed=0:00:00.52    \nframe=    0 fps=0.0 q=0.0 size=       0KiB time=N/A bitrate=N/A speed=N/A elapsed=0:00:01.10    \nframe=    4 fps=2.4 q=63.0 size=       1KiB time=00:00:00.13 bitrate=  38.0kbits/s speed=0.0786x elapsed=0:00:01.69    \nframe=    8 fps=3.6 q=63.0 size=       1KiB time=00:00:00.26 bitrate=  19.0kbits/s speed=0.121x elapsed=0:00:02.21    \nframe=   12 fps=4.4 q=63.0 size=       1KiB time=00:00:00.40 bitrate=  12.7kbits/s speed=0.147x elapsed=0:00:02.72    \nframe=   16 fps=4.9 q=63.0 size=       1KiB time=00:00:00.53 bitrate=   9.5kbits/s speed=0.164x elapsed=0:00:03.24    \nframe=   20 fps=5.3 q=63.0 size=       1KiB time=00:00:00.66 bitrate=   7.6kbits/s speed=0.177x elapsed=0:00:03.75    \nframe=   24 fps=5.6 q=63.0 size=       1KiB time=00:00:00.80 bitrate=   6.3kbits/s speed=0.187x elapsed=0:00:04.27    \nframe=   28 fps=5.8 q=63.0 size=       1KiB time=00:00:00.93 bitrate=   5.4kbits/s speed=0.195x elapsed=0:00:04.79    \nframe=   32 fps=6.0 q=63.0 size=       1KiB time=00:00:01.06 bitrate=   4.8kbits/s speed= 0.2x elapsed=0:00:05.32    \nframe=   36 fps=6.2 q=63.0 size=       1KiB time=00:00:01.20 bitrate=   4.2kbits/s speed=0.205x elapsed=0:00:05.84    \nframe=   40 fps=6.3 q=63.0 size=       1KiB time=00:00:01.33 bitrate=   3.8kbits/s speed=0.21x elapsed=0:00:06.35    \nframe=   44 fps=6.4 q=63.0 size=       1KiB time=00:00:01.46 bitrate=   3.5kbits/s speed=0.213x elapsed=0:00:06.89    \nframe=   48 fps=6.5 q=63.0 size=       1KiB time=00:00:01.60 bitrate=   3.2kbits/s speed=0.216x elapsed=0:00:07.42    \nframe=   52 fps=6.6 q=63.0 size=       1KiB time=00:00:01.73 bitrate=   2.9kbits/s speed=0.219x elapsed=0:00:07.92    \nframe=   56 fps=6.6 q=63.0 size=       1KiB time=00:00:01.86 bitrate=   2.7kbits/s speed=0.221x elapsed=0:00:08.44    \nframe=   60 fps=6.7 q=63.0 size=       1KiB time=00:00:02.00 bitrate=   2.5kbits/s speed=0.223x elapsed=0:00:08.98    \nframe=   64 fps=6.7 q=63.0 size=       1KiB time=00:00:02.13 bitrate=   2.4kbits/s speed=0.225x elapsed=0:00:09.49    \nframe=   68 fps=6.8 q=63.0 size=       1KiB time=00:00:02.26 bitrate=   2.2kbits/s speed=0.226x elapsed=0:00:10.03    \nframe=   72 fps=6.8 q=63.0 size=       1KiB time=00:00:02.40 bitrate=   2.1kbits/s speed=0.227x elapsed=0:00:10.57    \nframe=   76 fps=6.8 q=63.0 size=       1KiB time=00:00:02.53 bitrate=   2.0kbits/s speed=0.228x elapsed=0:00:11.11    \nframe=   80 fps=6.9 q=63.0 size=       1KiB time=00:00:02.66 bitrate=   1.9kbits/s speed=0.229x elapsed=0:00:11.65    \nframe=   83 fps=6.8 q=63.0 size=       1KiB time=00:00:02.76 bitrate=   1.8kbits/s speed=0.227x elapsed=0:00:12.18    \nframe=   87 fps=6.8 q=63.0 size=       1KiB time=00:00:02.86 bitrate=   1.8kbits/s speed=0.225x elapsed=0:00:12.71    \nframe=   89 fps=6.7 q=63.0 size=       1KiB time=00:00:02.96 bitrate=   1.7kbits/s speed=0.222x elapsed=0:00:13.37    \nframe=   91 fps=6.5 q=50.0 size=       1KiB time=00:00:03.03 bitrate=   1.7kbits/s speed=0.217x elapsed=0:00:13.98    \nframe=   93 fps=6.4 q=63.0 size=       1KiB time=00:00:03.10 bitrate=   1.6kbits/s speed=0.213x elapsed=0:00:14.58    \nframe=   95 fps=6.3 q=63.0 size=       1KiB time=00:00:03.16 bitrate=   1.6kbits/s speed=0.209x elapsed=0:00:15.12    \nframe=   98 fps=6.3 q=63.0 size=       1KiB time=00:00:03.26 bitrate=   1.6kbits/s speed=0.209x elapsed=0:00:15.66    \nframe=  101 fps=6.2 q=50.0 size=       1KiB time=00:00:03.36 bitrate=   1.5kbits/s speed=0.208x elapsed=0:00:16.20    \nframe=  104 fps=6.2 q=63.0 size=       1KiB time=00:00:03.46 bitrate=   1.5kbits/s speed=0.207x elapsed=0:00:16.70    \nframe=  108 fps=6.3 q=63.0 size=       1KiB time=00:00:03.60 bitrate=   1.4kbits/s speed=0.209x elapsed=0:00:17.24    \nframe=  111 fps=6.3 q=50.0 size=       1KiB time=00:00:03.70 bitrate=   1.4kbits/s speed=0.208x elapsed=0:00:17.75    \nframe=  114 fps=6.2 q=63.0 size=       1KiB time=00:00:03.80 bitrate=   1.3kbits/s speed=0.208x elapsed=0:00:18.28    \nframe=  117 fps=6.2 q=63.0 size=       1KiB time=00:00:03.90 bitrate=   1.3kbits/s speed=0.206x elapsed=0:00:18.89    \nframe=  120 fps=6.1 q=63.0 size=       1KiB time=00:00:04.00 bitrate=   1.3kbits/s speed=0.205x elapsed=0:00:19.52    \nframe=  123 fps=6.1 q=63.0 size=       1KiB time=00:00:04.10 bitrate=   1.2kbits/s speed=0.204x elapsed=0:00:20.07    \nframe=  126 fps=6.1 q=63.0 size=       1KiB time=00:00:04.20 bitrate=   1.2kbits/s speed=0.204x elapsed=0:00:20.59    \nframe=  126 fps=6.0 q=63.0 size=       1KiB time=00:00:04.20 bitrate=   1.2kbits/s speed=0.199x elapsed=0:00:21.10    \nframe=  126 fps=5.8 q=63.0 size=       1KiB time=00:00:04.20 bitrate=   1.2kbits/s speed=0.194x elapsed=0:00:21.65    \nframe=  126 fps=5.7 q=63.0 size=       1KiB time=00:00:04.20 bitrate=   1.2kbits/s speed=0.189x elapsed=0:00:22.19    \nframe=  126 fps=5.5 q=63.0 size=       1KiB time=00:00:04.20 bitrate=   1.2kbits/s speed=0.185x elapsed=0:00:22.73    \nframe=  126 fps=5.4 q=63.0 size=       1KiB time=00:00:04.20 bitrate=   1.2kbits/s speed=0.181x elapsed=0:00:23.25    \nframe=  126 fps=5.3 q=63.0 size=       1KiB time=00:00:04.20 bitrate=   1.2kbits/s speed=0.177x elapsed=0:00:23.78    \nframe=  126 fps=5.2 q=63.0 size=       1KiB time=00:00:04.20 bitrate=   1.2kbits/s speed=0.173x elapsed=0:00:24.33    \nframe=  126 fps=5.1 q=63.0 size=       1KiB time=00:00:04.20 bitrate=   1.2kbits/s speed=0.169x elapsed=0:00:24.87    \n[out#0/webm @ 000001cb0d7d9240] video:919KiB audio:0KiB subtitle:0KiB other streams:0KiB global headers:0KiB muxing overhead: 0.187304%\nframe=  150 fps=6.0 q=63.0 Lsize=     920KiB time=00:00:05.00 bitrate=1508.0kbits/s speed=0.201x elapsed=0:00:24.93    \n",
  "seconds": 26.770345449447632,
  "probe_out": {}
}